<svg xmlns="http://www.w3.org/2000/svg" width="16" height="16" fill="none" viewBox="0 0 16 16">
  <path fill="#000" d="M3.2 1.86a2 2 0 0 1 1.47-.61h.66a.75.75 0 1 1 0 1.5h-.66a.58.58 0 0 0-.59.58v3.34c0 .49-.17.96-.48 1.33.31.37.48.84.48 1.33v3.34c0 .32.27.58.59.58h.66a.75.75 0 0 1 0 1.5h-.66a2.09 2.09 0 0 1-2.09-2.08V9.33A.58.58 0 0 0 2 8.75a.75.75 0 0 1 0-1.5.58.58 0 0 0 .58-.58V3.33c0-.55.22-1.08.61-1.47ZM9.91 2c0-.41.33-.75.75-.75h.66a2.08 2.08 0 0 1 2.09 2.08v3.34a.58.58 0 0 0 .58.58.75.75 0 0 1 0 1.5.59.59 0 0 0-.58.58v3.34a2.08 2.08 0 0 1-2.09 2.08h-.66a.75.75 0 0 1 0-1.5h.66a.58.58 0 0 0 .59-.58V9.33c0-.5.18-.97.48-1.33a2.08 2.08 0 0 1-.48-1.33V3.33a.58.58 0 0 0-.59-.58h-.66A.75.75 0 0 1 9.92 2Z"/>
</svg>
