<svg xmlns="http://www.w3.org/2000/svg" width="16" height="16" fill="none" viewBox="0 0 16 16">
  <path stroke="#000" stroke-linecap="round" stroke-linejoin="round" stroke-width="1.33" d="M5.33 1.33 6.6 2.6m2.82 0 1.26-1.26M6 4.75V4.1a2 2 0 1 1 4 0v.66m-2 8.58c-2.2 0-4-1.8-4-4v-2a2.67 2.67 0 0 1 2.67-2.66h2.66A2.67 2.67 0 0 1 12 7.33v2c0 2.2-1.8 4-4 4Zm0 0v-6M4.35 6A2.68 2.68 0 0 1 2 3.33m2 5.34H1.33M2 14a2.7 2.7 0 0 1 2.53-2.67m9.45-8c0 1.4-1.07 2.54-2.33 2.67m3.02 2.67H12m-.53 2.66A2.7 2.7 0 0 1 14 14"/>
</svg>
