<svg xmlns="http://www.w3.org/2000/svg" width="16" height="16" fill="none" viewBox="0 0 16 16">
  <path fill="#000" d="M11.25 12.12c-.42 0-.8-.08-1.13-.25a1.9 1.9 0 0 1-.74-.69c-.18-.3-.26-.62-.26-1 0-.37.09-.7.27-1 .19-.3.45-.53.8-.7.37-.16.8-.25 1.3-.25h1.91v.97h-1.9c-.37 0-.66.09-.87.26-.2.16-.3.39-.3.67 0 .29.1.51.29.68.19.17.46.25.81.25.33 0 .61-.06.85-.2a1.48 1.48 0 0 0 .76-1.33V7.86c0-.38-.12-.67-.35-.88-.23-.2-.54-.3-.92-.3-.31 0-.57.06-.78.2-.2.13-.35.32-.43.55H9.32a2.4 2.4 0 0 1 .85-1.35c.43-.32.96-.49 1.61-.49.51 0 .95.1 1.32.28.38.18.66.45.85.8.2.35.3.75.3 1.23V12h-1l-.15-.8h-.06a2.1 2.1 0 0 1-1.78.92ZM1.06 12l3.02-8.4h1.56L8.66 12H7.31L4.88 5.08h-.06L2.4 12H1.06Zm1.64-1.88.44-1.17h3.44l.45 1.17H2.7Z"/>
</svg>
