<svg xmlns="http://www.w3.org/2000/svg" width="16" height="16" viewBox="0 0 16 16" fill="none">
  <path d="M9.33322 2.73334L7.99989 4.00001M3.39989 5.33334L1.46655 4.80001M3.99989 8.00001L2.73322 9.33334M4.79989 1.46667L5.33322 3.40001M6.02455 6.46001C5.9987 6.39911 5.99163 6.33188 6.00426 6.26694C6.01688 6.20199 6.04862 6.1423 6.0954 6.09552C6.14218 6.04874 6.20187 6.017 6.26681 6.00438C6.33176 5.99176 6.39899 5.99882 6.45989 6.02468L13.7932 9.02468C13.8585 9.05145 13.9136 9.09824 13.9506 9.15832C13.9875 9.21839 14.0045 9.28865 13.999 9.35898C13.9935 9.42931 13.9659 9.49609 13.92 9.54971C13.8742 9.60332 13.8125 9.64101 13.7439 9.65734L10.8446 10.3513C10.7249 10.3799 10.6154 10.4411 10.5284 10.528C10.4413 10.615 10.38 10.7244 10.3512 10.844L9.65789 13.744C9.64173 13.8129 9.60408 13.8748 9.5504 13.9209C9.49671 13.9669 9.42977 13.9947 9.35925 14.0002C9.28874 14.0057 9.2183 13.9886 9.15813 13.9514C9.09796 13.9142 9.05118 13.8589 9.02455 13.7933L6.02455 6.46001Z" stroke="black" stroke-width="1.33333" stroke-linecap="round" stroke-linejoin="round"/>
</svg>