<svg xmlns="http://www.w3.org/2000/svg" fill="none" viewBox="0 0 24 24">
  <path fill="#fff" d="M12 0a12 12 0 1 1 0 24 12 12 0 0 1 0-24Zm7.2 12.8-.6.2-.3.1a1 1 0 0 0-.3.1v1.2c0 .4-.4.7-.9.7-.4 0-.8-.3-.8-.7 0-.2-.2-.3-.4-.2l-3 1.2-.4.2a1.4 1.4 0 0 1-.9-.1L6 13l-.6-.2-.2.1-.1.6v1.9l.1.7c0 .2.2.4.4.5l.7.4 5.2 2 .6.3h.6l.5-.2 5.3-2.1.7-.4.4-.5v-3.2l-.3-.1Zm-6.7-7.2a1.4 1.4 0 0 0-.9.2L3.8 9.2c-.2.1-.4.3-.4.6s.2.5.4.6l7.9 3.5.4.2h.3l.5-.2 2.3-1 .6-.4v-.3l-.6-.3-2.5-1.1c-.4-.2-.5-.6-.3-1 .2-.3.6-.4 1-.3l3.8 1.7.4.2v.1c.3.1.4.2.6 0l1.3-.5 1.2-.6c.3 0 .5-.3.5-.6s-.2-.5-.5-.6L13 5.8l-.4-.2Z"/>
</svg>
