<svg xmlns="http://www.w3.org/2000/svg" width="16" height="16" fill="none" viewBox="0 0 16 16">
  <g fill="#000">
    <path d="M3.796 3.796a.446.446 0 0 0-.131.315v7.778a.446.446 0 0 0 .446.446h7.778a.446.446 0 0 0 .446-.446V8.556a.665.665 0 1 1 1.33 0v3.333a1.776 1.776 0 0 1-1.776 1.776H4.11a1.776 1.776 0 0 1-1.776-1.776V4.11A1.776 1.776 0 0 1 4.11 2.334h3.333a.665.665 0 1 1 0 1.33H4.111a.446.446 0 0 0-.315.13Z"/>
    <path d="M9.002 3c0-.367.297-.665.665-.665H13c.367 0 .665.298.665.665v3.333a.665.665 0 0 1-1.33 0V4.605L8.47 8.47a.665.665 0 1 1-.94-.94l3.865-3.865H9.667A.665.665 0 0 1 9.002 3Z"/>
  </g>
</svg>
