<svg xmlns="http://www.w3.org/2000/svg" width="16" height="16" fill="none" viewBox="0 0 16 16">
  <path fill="#000" d="M2.65 2a.65.65 0 0 0-1.3 0v8.67a1.98 1.98 0 0 0 1.98 1.98h2a.65.65 0 1 0 0-1.3h-2a.68.68 0 0 1-.68-.68V5.2c.22.07.45.12.68.12h2a.65.65 0 0 0 0-1.3h-2a.68.68 0 0 1-.68-.69V2Zm6.02.34h4.66a1.32 1.32 0 0 1 1.32 1.32v2a1.32 1.32 0 0 1-1.32 1.32H8.67a1.32 1.32 0 0 1-1.32-1.32v-2a1.32 1.32 0 0 1 1.32-1.32Zm-.02 1.3v2.02a.02.02 0 0 0 .02.02h4.66a.02.02 0 0 0 .02-.02v-2a.02.02 0 0 0-.02-.02H8.65Zm.02 6.04h4.66A1.32 1.32 0 0 1 14.65 11v2a1.32 1.32 0 0 1-1.32 1.32H8.67A1.32 1.32 0 0 1 7.35 13v-2a1.32 1.32 0 0 1 1.32-1.32Zm-.02 1.3v2.03h4.68a.02.02 0 0 0 .02-.01v-2a.02.02 0 0 0-.02-.02H8.65Z"/>
</svg>
