<svg xmlns="http://www.w3.org/2000/svg" width="16" height="16" fill="none" viewBox="0 0 16 16">
  <g clip-path="url(#a)">
    <path fill="#000" fill-rule="evenodd" d="M7.98 0A8.08 8.08 0 0 0 0 8.2c0 3.63 2.28 6.7 5.45 7.78.4.09.55-.17.55-.39l-.02-1.52c-2.22.49-2.68-.98-2.68-.98-.36-.95-.88-1.2-.88-1.2-.73-.5.05-.5.05-.5.8.06 1.23.85 1.23.85.71 1.25 1.86.9 2.32.68.07-.53.28-.9.5-1.1-1.77-.2-3.63-.9-3.63-4.05 0-.9.32-1.63.82-2.2a3 3 0 0 1 .08-2.17s.67-.22 2.2.84a7.52 7.52 0 0 1 3.98 0c1.52-1.06 2.2-.84 2.2-.84.43 1.12.15 1.96.07 2.17.52.57.82 1.3.82 2.2 0 3.15-1.86 3.84-3.64 4.05.29.25.54.74.54 1.52l-.02 2.25c0 .22.15.48.55.4a8.18 8.18 0 0 0 5.45-7.79A8.07 8.07 0 0 0 7.98 0Z" clip-rule="evenodd"/>
  </g>
  <defs>
    <clipPath id="a">
      <path fill="#fff" d="M0 0h16v16H0z"/>
    </clipPath>
  </defs>
</svg>
