<svg xmlns="http://www.w3.org/2000/svg" width="16" height="16" fill="none" viewBox="0 0 16 16">
  <g fill="#000" clip-path="url(#a)">
    <path d="m15.73 6.39-.02-.06L13.53.66a.57.57 0 0 0-.56-.36.57.57 0 0 0-.52.42l-1.47 4.5H5.03L3.55.72A.57.57 0 0 0 3.04.3a.58.58 0 0 0-.56.36L.29 6.34l-.02.06a4.05 4.05 0 0 0 1.34 4.67l.02.02 3.32 2.48 1.64 1.24 1 .76a.67.67 0 0 0 .81 0l2.64-2 3.34-2.5a4.04 4.04 0 0 0 1.35-4.68Z"/>
    <path d="m15.73 6.39-.02-.06a7.37 7.37 0 0 0-2.93 1.32L8 11.27l3.05 2.3 3.34-2.5a4.05 4.05 0 0 0 1.34-4.68ZM4.95 13.57l1.64 1.24 1 .76a.67.67 0 0 0 .81 0l2.64-2-3.05-2.3-3.04 2.3Z"/>
    <path d="M3.22 7.65A7.36 7.36 0 0 0 .29 6.34l-.02.05a4.04 4.04 0 0 0 1.34 4.68l.02.02 3.32 2.48L8 11.27 3.22 7.65Z"/>
  </g>
  <defs>
    <clipPath id="a">
      <path fill="#fff" d="M0 0h16v16H0z"/>
    </clipPath>
  </defs>
</svg>
