<svg xmlns="http://www.w3.org/2000/svg" width="16" height="16" fill="none" viewBox="0 0 16 16">
  <g clip-path="url(#a)">
    <path fill="#fff" d="M.2 9.84c-.04-.15.14-.24.25-.13l5.84 5.84c.11.1.02.29-.13.25A8.02 8.02 0 0 1 .2 9.84ZM0 7.5c0 .05.01.1.05.12l8.33 8.33c.03.04.07.05.12.05a8 8 0 0 0 1.11-.15.16.16 0 0 0 .08-.26L.4 6.3a.16.16 0 0 0-.26.08C.07 6.75.02 7.12 0 7.5Zm.67-2.75a.16.16 0 0 0 .04.18l10.36 10.36c.05.05.12.06.18.04.28-.13.56-.27.83-.43.09-.06.1-.18.03-.25L1.35 3.89a.16.16 0 0 0-.25.03c-.16.27-.3.55-.43.83ZM2.03 2.9a.16.16 0 0 1-.01-.21 8 8 0 1 1 11.3 11.3.16.16 0 0 1-.21 0L2.03 2.88Z"/>
  </g>
  <defs>
    <clipPath id="a">
      <path fill="#fff" d="M0 0h16v16H0z"/>
    </clipPath>
  </defs>
</svg>
