<svg xmlns="http://www.w3.org/2000/svg" width="16" height="16" fill="none" viewBox="0 0 16 16">
  <path fill="#000" d="M6.4 10.8V5.2L10.8 8l-4.4 2.8ZM8 14.4a6.25 6.25 0 0 1-4.53-1.88 6.45 6.45 0 0 1-1.37-7A6.48 6.48 0 0 1 8 1.6a6.2 6.2 0 0 1 4.53 1.88A6.47 6.47 0 0 1 14.4 8a6.25 6.25 0 0 1-1.88 4.53A6.46 6.46 0 0 1 8 14.4Zm0-1.2c1.44 0 2.67-.5 3.68-1.52A5.01 5.01 0 0 0 13.2 8c0-1.44-.5-2.67-1.52-3.68A5.01 5.01 0 0 0 8 2.8c-1.44 0-2.67.5-3.68 1.52A5.01 5.01 0 0 0 2.8 8c0 1.44.5 2.67 1.52 3.68A5.01 5.01 0 0 0 8 13.2Z"/>
</svg>
