<svg width="16" height="16" viewBox="0 0 16 16" fill="none" xmlns="http://www.w3.org/2000/svg">
<path fill-rule="evenodd" clip-rule="evenodd" d="M1.91879 1.9191C2.29387 1.54403 2.80257 1.33331 3.33301 1.33331H12.6663C13.1968 1.33331 13.7055 1.54403 14.0806 1.9191C14.4556 2.29417 14.6663 2.80288 14.6663 3.33331V4.66665C14.6663 5.03484 14.3679 5.33331 13.9997 5.33331C13.6315 5.33331 13.333 5.03484 13.333 4.66665V3.33331C13.333 3.1565 13.2628 2.98693 13.1377 2.86191C13.0127 2.73688 12.8432 2.66665 12.6663 2.66665H3.33301C3.1562 2.66665 2.98663 2.73688 2.8616 2.86191C2.73658 2.98693 2.66634 3.1565 2.66634 3.33331V4.66665C2.66634 5.03484 2.36786 5.33331 1.99967 5.33331C1.63148 5.33331 1.33301 5.03484 1.33301 4.66665V3.33331C1.33301 2.80288 1.54372 2.29417 1.91879 1.9191ZM4.83914 4.96581C5.77358 4.3379 6.87387 4.00256 7.99967 4.00256C9.12548 4.00256 10.2258 4.3379 11.1602 4.96581C12.0946 5.59372 12.8209 6.48573 13.2463 7.52808C13.2505 7.53861 13.2546 7.54924 13.2583 7.55998C13.3579 7.84486 13.3579 8.1551 13.2583 8.43998C13.2546 8.45071 13.2505 8.46135 13.2463 8.47188C12.8209 9.51423 12.0946 10.4062 11.1602 11.0341C10.2258 11.6621 9.12548 11.9974 7.99967 11.9974C6.87387 11.9974 5.77358 11.6621 4.83914 11.0341C3.90471 10.4062 3.17848 9.51423 2.7531 8.47188C2.7488 8.46135 2.74477 8.45071 2.74102 8.43998C2.64143 8.1551 2.64143 7.84486 2.74102 7.55998C2.74477 7.54924 2.7488 7.53861 2.7531 7.52808C3.17848 6.48573 3.90471 5.59372 4.83914 4.96581ZM7.99967 5.3359C7.13876 5.3359 6.29737 5.59233 5.5828 6.0725C4.87778 6.54625 4.32775 7.21659 4.00075 7.99998C4.32775 8.78337 4.87778 9.45371 5.5828 9.92746C6.29737 10.4076 7.13876 10.6641 7.99967 10.6641C8.86058 10.6641 9.70198 10.4076 10.4166 9.92746C11.1216 9.45371 11.6716 8.78336 11.9986 7.99998C11.6716 7.21659 11.1216 6.54625 10.4166 6.0725C9.70198 5.59233 8.86058 5.3359 7.99967 5.3359ZM6.66634 7.99998C6.66634 7.2636 7.26329 6.66665 7.99967 6.66665C8.73605 6.66665 9.33301 7.2636 9.33301 7.99998C9.33301 8.73636 8.73605 9.33331 7.99967 9.33331C7.26329 9.33331 6.66634 8.73636 6.66634 7.99998ZM1.99967 10.6666C2.36786 10.6666 2.66634 10.9651 2.66634 11.3333V12.6666C2.66634 12.8435 2.73658 13.013 2.8616 13.138C2.98663 13.2631 3.1562 13.3333 3.33301 13.3333H12.6663C12.8432 13.3333 13.0127 13.2631 13.1377 13.138C13.2628 13.013 13.333 12.8435 13.333 12.6666V11.3333C13.333 10.9651 13.6315 10.6666 13.9997 10.6666C14.3679 10.6666 14.6663 10.9651 14.6663 11.3333V12.6666C14.6663 13.1971 14.4556 13.7058 14.0806 14.0809C13.7055 14.4559 13.1968 14.6666 12.6663 14.6666H3.33301C2.80257 14.6666 2.29387 14.4559 1.91879 14.0809C1.54372 13.7058 1.33301 13.1971 1.33301 12.6666V11.3333C1.33301 10.9651 1.63148 10.6666 1.99967 10.6666Z" fill="#616369"/>
</svg>
