<svg xmlns="http://www.w3.org/2000/svg" width="16" height="16" viewBox="0 0 16 16" fill="none">
  <path d="M11.9999 11.3201H8.00659C7.27325 11.3201 6.70659 11.9468 6.35325 12.5868C6.07355 13.1116 5.62644 13.5279 5.083 13.7694C4.53955 14.011 3.93096 14.0639 3.35397 13.9199C2.77697 13.7758 2.26469 13.443 1.89855 12.9744C1.53241 12.5057 1.33344 11.9282 1.33325 11.3335C1.33992 10.8668 1.46659 10.4001 1.71325 10.0001M3.99992 11.3335L6.08659 7.48012C6.43992 6.83345 6.15325 6.02679 5.75325 5.41345C5.56446 5.11152 5.43806 4.77484 5.38149 4.42326C5.32493 4.07168 5.33935 3.71234 5.42391 3.36643C5.50847 3.02052 5.66146 2.69505 5.87384 2.40922C6.08623 2.12339 6.3537 1.88299 6.6605 1.70221C6.96729 1.52143 7.30719 1.40393 7.66013 1.35663C8.01307 1.30934 8.37191 1.33321 8.71548 1.42684C9.05904 1.52048 9.38038 1.68197 9.66052 1.9018C9.94066 2.12163 10.1739 2.39534 10.3466 2.70679M7.99992 4.00012L10.0866 7.82012C10.4399 8.46679 11.2666 8.66679 11.9999 8.66679C12.7072 8.66679 13.3854 8.94774 13.8855 9.44783C14.3856 9.94793 14.6666 10.6262 14.6666 11.3335C14.6666 12.0407 14.3856 12.719 13.8855 13.2191C13.3854 13.7192 12.7072 14.0001 11.9999 14.0001" stroke="#000" stroke-width="1.33333" stroke-linecap="round" stroke-linejoin="round"/>
</svg>