<svg xmlns="http://www.w3.org/2000/svg" width="264" height="264" fill="none" viewBox="0 0 264 264">
  <rect width="264" height="263.9" fill="#251F47" rx="132"/>
  <g fill="#D2CBF6">
    <path d="M124 179a4 4 0 0 1 4 4v81a132 132 0 0 1-30-4.4V183a4 4 0 0 1 4-4h22Zm38 0a4 4 0 0 1 4 4v76.6a132 132 0 0 1-30 4.3V183a4 4 0 0 1 4-4h22Zm-75.4 0c1.9 0 3.4 1.5 3.4 3.4v74.8c-10-3.3-19.3-7.8-28-13.3V208c0-12 9.5-22.8 23.3-28.7.4-.2.8-.3 1.3-.3Zm90.9 0c.5 0 1 0 1.4.3C192.6 185.2 202 196 202 208v36c-8.7 5.4-18 9.9-28 13.2v-74.7c0-2 1.6-3.5 3.5-3.5Z"/>
    <path d="M132 0a132 132 0 0 1 78 238.5V208c0-12.5 10.3-23.7 25-29.5 2.2-.8 2.1-5.7 0-6.4a36.7 36.7 0 0 1-25.7-26c-.8-2.6-5.6-2.6-6.5 0a36.8 36.8 0 0 1-21.8 24.6l-1.5.3H178a4 4 0 0 1-4-4v-19c0-12.5 10.3-23.7 25-29.5 2.2-.8 2.1-5.7 0-6.4a36.7 36.7 0 0 1-25.7-26c-.8-2.6-5.6-2.6-6.5 0a36.8 36.8 0 0 1-21.8 24.6l-1.5.3H140a4 4 0 0 1-4-4V86c0-12.5 10.3-23.7 25-29.5 2.2-.8 2.1-5.7 0-6.4a36.7 36.7 0 0 1-25.7-26c-.8-2.6-5.6-2.6-6.5 0a37 37 0 0 1-25.6 26c-2.2.7-2.3 5.6-.2 6.4 14.7 5.8 25 17 25 29.5v21a4 4 0 0 1-4 4h-3.4c-.5 0-1 0-1.5-.3a36.4 36.4 0 0 1-21.8-24.6c-.8-2.6-5.6-2.6-6.5 0a37 37 0 0 1-25.6 26c-2.2.7-2.3 5.6-.2 6.4 14.7 5.8 25 17 25 29.5v19a4 4 0 0 1-4 4h-1.4c-.5 0-1 0-1.5-.3a36.4 36.4 0 0 1-21.8-24.6c-.8-2.6-5.6-2.6-6.5 0a37 37 0 0 1-25.6 26c-2.2.7-2.3 5.6-.2 6.4 14.7 5.8 25 17 25 29.5v30.5A132 132 0 0 1 132 0Z"/>
    <path d="M124 119a4 4 0 0 1 4 4v44a4 4 0 0 1-4 4h-22a4 4 0 0 1-4-4v-19c0-12 9.4-22.8 23.2-28.7.4-.2 1-.3 1.5-.3h1.3Zm17.4 0 1.6.3c13.6 6 23 16.7 23 28.7v19a4 4 0 0 1-4 4h-22a4 4 0 0 1-4-4v-44a4 4 0 0 1 4-4h1.4Z"/>
  </g>
</svg>
