<svg xmlns="http://www.w3.org/2000/svg" width="180" height="180" fill="none" viewBox="0 0 180 180">
  <g clip-path="url(#a)">
    <rect width="180" height="180" fill="#251F47" rx="90"/>
    <g fill="#D2CBF6">
      <path d="M81.6 187.2c2.3 0 4.2 1.9 4.2 4.2V276a138 138 0 0 1-31.3-4.5v-80.1c0-2.3 1.8-4.2 4.1-4.2h23Zm39.8 0c2.3 0 4.1 1.9 4.1 4.2v80a138 138 0 0 1-31.3 4.6v-84.6c0-2.3 1.9-4.2 4.2-4.2h23Zm-78.9 0c2 0 3.6 1.6 3.6 3.6V269a137.4 137.4 0 0 1-29.3-14v-37.6c0-12.5 10-23.8 24.3-30l1.4-.3Zm95.1 0c.5 0 1 .1 1.4.3 14.3 6.2 24.2 17.5 24.2 30v37.6c-9.1 5.7-19 10.4-29.3 13.9v-78.1c0-2 1.7-3.7 3.7-3.7Z"/>
      <path d="M90 0a138 138 0 0 1 81.5 249.4v-31.9c0-13 10.8-24.8 26.3-30.8 2.2-.9 2.1-6-.2-6.7a38.4 38.4 0 0 1-26.8-27.2c-.9-2.7-5.9-2.8-6.8 0-4.3 13-11.2 21-22.8 25.7a4 4 0 0 1-1.5.3H138a4.2 4.2 0 0 1-4.2-4.1v-20c0-13 10.8-24.7 26.2-30.7 2.3-.9 2.2-6-.1-6.7A38.4 38.4 0 0 1 133.2 90c-.9-2.8-5.9-2.8-6.8 0a38.6 38.6 0 0 1-22.8 25.7 4 4 0 0 1-1.6.3h-3.6a4.2 4.2 0 0 1-4.2-4.2V90c0-13 10.8-24.8 26.2-30.8 2.2-.8 2.2-6-.1-6.7a38.4 38.4 0 0 1-26.8-27.2c-1-2.7-6-2.7-6.8 0a38.7 38.7 0 0 1-26.9 27.2c-2.2.8-2.3 5.9 0 6.7 15.3 6 26 17.7 26 30.9v22c0 2.2-1.9 4.1-4.2 4.1h-3.5a4 4 0 0 1-1.5-.3 38 38 0 0 1-22.8-25.7c-1-2.8-6-2.8-6.9 0a38.7 38.7 0 0 1-26.8 27.2c-2.3.7-2.4 5.8-.1 6.7 15.3 6 26 17.7 26 30.8v19.9a4 4 0 0 1-4 4.1h-1.5a4 4 0 0 1-1.6-.3 38 38 0 0 1-22.8-25.7c-.9-2.7-5.9-2.8-6.8 0A38.7 38.7 0 0 1-17.5 180c-2.3.8-2.4 5.8-.1 6.7 15.3 6 26 17.7 26 30.8v32A138 138 0 0 1 90 0Z"/>
      <path d="M81.6 124.5c2.3 0 4.2 1.8 4.2 4.2v46c0 2.3-1.9 4.1-4.2 4.1h-23a4.2 4.2 0 0 1-4.1-4.1v-20c0-12.4 9.8-23.7 24.2-29.9a4 4 0 0 1 1.6-.3h1.3Zm18.2 0a4 4 0 0 1 1.7.3c14.2 6.2 24 17.5 24 30v19.9a4 4 0 0 1-4.1 4.1h-23a4.2 4.2 0 0 1-4.2-4.1v-46c0-2.4 1.9-4.2 4.2-4.2h1.4Z"/>
    </g>
  </g>
  <defs>
    <clipPath id="a">
      <rect width="180" height="180" fill="#fff" rx="90"/>
    </clipPath>
  </defs>
</svg>
