<svg xmlns="http://www.w3.org/2000/svg" width="715" height="431" fill="none" viewBox="0 0 715 431">
  <g clip-path="url(#bgex-a)">
    <rect width="768" height="464" x="-26" y="-22" fill="var(--bg-pane)" rx="12"/>
    <g clip-path="url(#bgex-b)">
      <path fill="var(--bg-section)" stroke="var(--border-1)" stroke-width=".5" d="M28.25 60.25h119.5v342.5H28.25z"/>
      <path fill="var(--bg-base)" d="M148 60h540v343H148z"/>
      <rect width="159.5" height="83.5" x="165.25" y="99.25" fill="var(--bg-section)" stroke="var(--border-1)" stroke-width=".5" rx="3.75"/>
      <rect width="159.5" height="83.5" x="165.25" y="199.25" fill="var(--bg-section)" stroke="var(--border-1)" stroke-width=".5" rx="3.75"/>
      <rect width="159.5" height="83.5" x="337.25" y="99.25" fill="var(--bg-section)" stroke="var(--border-1)" stroke-width=".5" rx="3.75"/>
      <rect width="159.5" height="83.5" x="337.25" y="199.25" fill="var(--bg-section)" stroke="var(--border-1)" stroke-width=".5" rx="3.75"/>
      <rect width="159.5" height="183.5" x="509.25" y="99.25" fill="var(--bg-section)" stroke="var(--border-1)" stroke-width=".5" rx="3.75"/>
      <rect width="24" height="24" x="173" y="107" fill="var(--bg-pane)" rx="4"/>
      <rect width="98" height="15" x="165" y="72" fill="var(--bg-pane)" rx="4"/>
      <rect width="98" height="15" x="39" y="72" fill="var(--bg-pane)" rx="2"/>
      <rect width="98" height="10" x="39" y="107" fill="var(--bg-pane)" rx="2"/>
      <rect width="98" height="10" x="39" y="123" fill="var(--bg-pane)" rx="2"/>
      <rect width="98" height="10" x="39" y="139" fill="var(--bg-pane)" rx="2"/>
      <rect width="98" height="10" x="39" y="155" fill="var(--bg-pane)" rx="2"/>
      <rect width="98" height="10" x="39" y="380" fill="var(--bg-pane)" rx="2"/>
      <rect width="98" height="10" x="39" y="364" fill="var(--bg-pane)" rx="2"/>
      <rect width="98" height="10" x="39" y="348" fill="var(--bg-pane)" rx="2"/>
      <rect width="24" height="24" x="173" y="207" fill="var(--bg-pane)" rx="4"/>
      <rect width="24" height="24" x="345" y="107" fill="var(--bg-pane)" rx="4"/>
      <rect width="24" height="24" x="345" y="207" fill="var(--bg-pane)" rx="4"/>
      <rect width="24" height="24" x="517" y="107" fill="var(--bg-pane)" rx="4"/>
      <rect width="141" height="38" x="345" y="237" fill="var(--bg-block)" rx="4"/>
      <rect width="504" height="42" x="165" y="343" fill="var(--bg-spot)" rx="4"/>
    </g>
    <rect width="658" height="342" x="28.5" y="60.5" stroke="var(--border-1)" rx="7.5"/>
    <g filter="url(#bgex-c)">
      <rect width="82" height="24" x="217" y="22" fill="var(--bg-base)" rx="12" shape-rendering="crispEdges"/>
      <rect width="81" height="23" x="217.5" y="22.5" stroke="var(--border-2)" rx="11.5" shape-rendering="crispEdges"/>
      <path fill="var(--text-1)" d="M229.19 38.13c-.49 0-.92-.1-1.3-.27a2.42 2.42 0 0 1-.9-.76h-.07l-.13.9h-.83v-9.1H227v3.17h.06c.24-.3.53-.54.89-.71.36-.18.78-.26 1.25-.26a2.74 2.74 0 0 1 2.54 1.62c.26.53.38 1.16.38 1.9a4.4 4.4 0 0 1-.38 1.9 2.73 2.73 0 0 1-2.54 1.61Zm-.15-.95a1.87 1.87 0 0 0 1.78-1.17c.18-.38.26-.84.26-1.39 0-.82-.18-1.46-.56-1.9a1.82 1.82 0 0 0-1.48-.66 2 2 0 0 0-1.08.3c-.3.19-.54.48-.71.87-.17.38-.26.84-.26 1.39 0 .55.09 1.01.26 1.4a2 2 0 0 0 .71.86 2 2 0 0 0 1.08.3Zm7.67 3.42c-.47 0-.91-.08-1.31-.23a2.78 2.78 0 0 1-1.7-1.81h1.09c.16.35.4.62.71.8.32.2.73.3 1.21.3.6 0 1.08-.16 1.43-.46.37-.3.55-.75.55-1.34V36.7h-.07c-.23.3-.53.52-.88.68-.35.15-.76.23-1.25.23a2.71 2.71 0 0 1-2.55-1.5 3.83 3.83 0 0 1-.38-1.75c0-.68.13-1.26.38-1.76.25-.49.6-.86 1.04-1.11.44-.26.95-.4 1.51-.4a3 3 0 0 1 1.27.27c.39.17.7.4.93.71h.06l.13-.84h.83v6.63c0 .86-.27 1.54-.81 2.01-.55.49-1.28.73-2.19.73Zm-.06-3.94c.4 0 .76-.09 1.06-.27.31-.18.55-.45.72-.8.17-.34.26-.75.26-1.23s-.09-.89-.26-1.23a1.7 1.7 0 0 0-.72-.8c-.3-.18-.66-.27-1.06-.27-.42 0-.78.09-1.08.27-.3.18-.54.44-.72.8-.17.34-.26.75-.26 1.23s.09.89.26 1.23c.18.35.41.62.72.8.3.18.66.27 1.08.27Zm4.78-2.59h3.93v.95h-3.93v-.95Zm7.81 4.06c-.45 0-.86-.08-1.23-.23a2.56 2.56 0 0 1-.91-.68 2.4 2.4 0 0 1-.48-1h1.09c.1.3.28.54.56.71.28.17.6.25.97.25.52 0 .92-.09 1.19-.27.27-.2.41-.44.41-.74a.7.7 0 0 0-.2-.54 1.28 1.28 0 0 0-.55-.3 5.6 5.6 0 0 0-.87-.25 9.29 9.29 0 0 1-1.25-.36 2.07 2.07 0 0 1-.82-.58 1.77 1.77 0 0 1-.34-1.15c0-.32.1-.63.3-.92a2 2 0 0 1 .84-.7c.38-.18.8-.27 1.3-.27.4 0 .78.07 1.12.2a2.16 2.16 0 0 1 1.38 1.53h-1.1c-.1-.25-.26-.44-.5-.58-.23-.13-.53-.2-.9-.2-.47 0-.81.08-1.05.26a.8.8 0 0 0-.35.68c0 .25.08.44.22.59.15.15.33.26.55.34.22.08.52.16.92.26.5.12.9.24 1.21.36.31.11.58.3.8.57.21.26.32.62.32 1.06 0 .35-.11.68-.33.98-.2.3-.5.54-.9.72-.4.17-.87.26-1.4.26Zm7.1 0c-.63 0-1.17-.13-1.64-.4a2.9 2.9 0 0 1-1.1-1.2 4.17 4.17 0 0 1-.4-1.91c0-.74.12-1.37.38-1.9a2.8 2.8 0 0 1 1.1-1.2c.46-.28 1-.42 1.6-.42a2.85 2.85 0 0 1 2.7 1.7 3.43 3.43 0 0 1 .3 2.16h-5.41v-.94h4.43a2.6 2.6 0 0 0-.29-.97 1.92 1.92 0 0 0-1.74-1c-.47 0-.86.1-1.17.33-.3.22-.53.52-.67.9s-.21.82-.21 1.33c0 .54.08 1.01.25 1.4a1.93 1.93 0 0 0 1.87 1.17c.38 0 .71-.08 1-.23a2 2 0 0 0 .71-.73h1.1a2.75 2.75 0 0 1-1.6 1.69 3.3 3.3 0 0 1-1.21.22Zm7.6 0c-.63 0-1.17-.13-1.64-.4a2.9 2.9 0 0 1-1.1-1.2 4.17 4.17 0 0 1-.4-1.91c0-.75.13-1.38.4-1.9a2.88 2.88 0 0 1 2.74-1.62c.44 0 .85.07 1.22.22s.7.37.96.66c.28.29.49.63.63 1.04h-1.08a1.97 1.97 0 0 0-1.73-.96 1.95 1.95 0 0 0-1.85 1.17c-.18.39-.27.85-.27 1.39 0 .54.09 1 .27 1.4.18.37.43.66.74.86.32.2.7.3 1.1.3a1.96 1.96 0 0 0 1.73-.97h1.08a2.73 2.73 0 0 1-1.58 1.7 3.3 3.3 0 0 1-1.22.22Zm6.64-.13c-.33 0-.62-.07-.88-.22a1.6 1.6 0 0 1-.61-.61 1.76 1.76 0 0 1-.22-.89v-4.1h-1.04v-.95h1.04l.14-1.82h.88v1.82h1.75v.96h-1.75v4.08c0 .23.08.41.22.56.15.14.33.2.55.2h.97V38h-1.05Zm2.78-6.77h1.02V38h-1.02v-6.77Zm.52-1.21a.72.72 0 0 1-.51-.2.68.68 0 0 1-.2-.5c0-.19.06-.36.2-.5a.7.7 0 0 1 .5-.2c.2 0 .36.06.49.2a.69.69 0 0 1 0 .99.63.63 0 0 1-.48.2Zm5.43 8.11c-.63 0-1.17-.13-1.64-.4a2.9 2.9 0 0 1-1.1-1.2 4.19 4.19 0 0 1-.4-1.91c0-.75.13-1.38.4-1.9a2.88 2.88 0 0 1 2.74-1.62c.62 0 1.16.14 1.62.41.48.28.85.68 1.1 1.21.28.52.41 1.15.41 1.9s-.13 1.38-.4 1.91a2.85 2.85 0 0 1-2.73 1.6Zm0-.95a1.96 1.96 0 0 0 1.83-1.17c.18-.39.28-.85.28-1.39 0-.55-.1-1.01-.28-1.4a1.96 1.96 0 0 0-1.83-1.17 1.95 1.95 0 0 0-1.85 1.17 3.3 3.3 0 0 0-.27 1.4c0 .54.1 1 .27 1.4.19.37.43.66.74.86.32.2.7.3 1.1.3Zm4.9-5.95h.84l.13.9h.06c.22-.36.5-.62.83-.79a2.65 2.65 0 0 1 2.41.09c.39.22.7.54.9.97.23.41.35.9.35 1.44V38h-1.03v-4.15a2 2 0 0 0-.22-.97 1.43 1.43 0 0 0-.59-.61 1.7 1.7 0 0 0-.85-.21c-.34 0-.65.08-.91.25a1.8 1.8 0 0 0-.65.65 1.8 1.8 0 0 0-.24.9V38h-1.03v-6.77Z"/>
    </g>
    <path fill="var(--border-2)" d="M255.33 46a2.67 2.67 0 1 0 5.34 0 2.67 2.67 0 0 0-5.34 0Zm0 83a2.67 2.67 0 1 0 5.34 0 2.67 2.67 0 0 0-5.34 0ZM258 46h-.5v83h1V46h-.5Z"/>
    <g filter="url(#bgex-d)">
      <rect width="66" height="24" x="125" y="22" fill="var(--bg-base)" rx="12" shape-rendering="crispEdges"/>
      <rect width="65" height="23" x="125.5" y="22.5" stroke="var(--border-2)" rx="11.5" shape-rendering="crispEdges"/>
      <path fill="var(--text-1)" d="M137.19 38.13c-.49 0-.92-.1-1.3-.27a2.42 2.42 0 0 1-.9-.76h-.07l-.13.9h-.83v-9.1H135v3.17h.06c.24-.3.53-.54.89-.71.36-.18.78-.26 1.25-.26a2.74 2.74 0 0 1 2.54 1.62c.26.53.38 1.16.38 1.9a4.4 4.4 0 0 1-.38 1.9 2.73 2.73 0 0 1-2.54 1.61Zm-.15-.95a1.87 1.87 0 0 0 1.78-1.17c.18-.38.26-.84.26-1.39 0-.82-.18-1.46-.56-1.9a1.82 1.82 0 0 0-1.48-.66 2 2 0 0 0-1.08.3c-.3.19-.54.48-.71.87-.17.38-.26.84-.26 1.39 0 .55.09 1.01.26 1.4a2 2 0 0 0 .71.86 2 2 0 0 0 1.08.3Zm7.67 3.42c-.47 0-.91-.08-1.31-.23a2.78 2.78 0 0 1-1.7-1.81h1.09c.16.35.4.62.71.8.32.2.73.3 1.21.3.6 0 1.08-.16 1.43-.46.37-.3.55-.75.55-1.34V36.7h-.07c-.23.3-.53.52-.88.68-.35.15-.76.23-1.25.23a2.71 2.71 0 0 1-2.55-1.5 3.83 3.83 0 0 1-.38-1.75c0-.68.13-1.26.38-1.76.25-.49.6-.86 1.04-1.11.44-.26.95-.4 1.51-.4a3 3 0 0 1 1.27.27c.39.17.7.4.93.71h.06l.13-.84h.83v6.63c0 .86-.27 1.54-.81 2.01-.55.49-1.28.73-2.19.73Zm-.06-3.94c.4 0 .76-.09 1.06-.27.31-.18.55-.45.72-.8.17-.34.26-.75.26-1.23s-.09-.89-.26-1.23a1.7 1.7 0 0 0-.72-.8c-.3-.18-.66-.27-1.06-.27-.42 0-.78.09-1.08.27-.3.18-.54.44-.72.8-.17.34-.26.75-.26 1.23s.09.89.26 1.23c.18.35.41.62.72.8.3.18.66.27 1.08.27Zm4.78-2.59h3.93v.95h-3.93v-.95Zm8.93 4.06c-.49 0-.91-.1-1.29-.27a2.43 2.43 0 0 1-.9-.76h-.07l-.13.9h-.83v-9.1h1.02v3.17h.07c.23-.3.53-.54.88-.71a2.8 2.8 0 0 1 1.25-.26 2.74 2.74 0 0 1 2.55 1.62c.25.53.38 1.16.38 1.9s-.13 1.37-.38 1.9a2.73 2.73 0 0 1-2.55 1.61Zm-.14-.95a1.88 1.88 0 0 0 1.78-1.17c.17-.38.26-.84.26-1.39 0-.82-.19-1.46-.56-1.9a1.82 1.82 0 0 0-1.48-.66c-.41 0-.77.1-1.08.3-.3.19-.54.48-.72.87-.17.38-.26.84-.26 1.39 0 .55.09 1.01.26 1.4a2 2 0 0 0 .72.86c.31.2.67.3 1.08.3Zm6.62.95c-.47 0-.89-.1-1.25-.27a2 2 0 0 1-.82-.74 2.05 2.05 0 0 1 .01-2.14c.2-.32.5-.57.87-.75.4-.18.85-.27 1.38-.27h2.21v.93h-2.2c-.5 0-.88.1-1.14.31a.99.99 0 0 0-.39.84c0 .34.12.62.35.83.24.2.58.31 1 .31.42 0 .78-.08 1.08-.25a1.78 1.78 0 0 0 .96-1.6v-1.81c0-.45-.14-.8-.44-1.07s-.68-.4-1.16-.4c-.4 0-.72.08-.98.26-.26.17-.44.4-.55.7h-1.08c.16-.6.47-1.08.93-1.4a2.74 2.74 0 0 1 1.69-.51c.54 0 1 .1 1.4.3.39.2.69.48.9.85.21.37.32.79.32 1.27V38h-.83l-.13-.9h-.07c-.14.25-.4.49-.79.7-.37.22-.8.33-1.27.33Zm7.3 0c-.45 0-.86-.08-1.24-.23a2.56 2.56 0 0 1-.9-.68 2.4 2.4 0 0 1-.49-1h1.1c.09.3.27.54.55.71.29.17.61.25.98.25.52 0 .91-.09 1.18-.27.28-.2.42-.44.42-.74a.7.7 0 0 0-.21-.54 1.28 1.28 0 0 0-.55-.3 5 5 0 0 0-.87-.25 9.29 9.29 0 0 1-1.25-.36 2.07 2.07 0 0 1-.82-.58 1.77 1.77 0 0 1-.33-1.15c0-.32.1-.63.3-.92a2 2 0 0 1 .84-.7 3.24 3.24 0 0 1 2.42-.07 2.16 2.16 0 0 1 1.38 1.53h-1.1c-.1-.25-.27-.44-.5-.58-.24-.13-.54-.2-.91-.2-.46 0-.8.08-1.04.26a.8.8 0 0 0-.35.68c0 .25.07.44.22.59.15.15.33.26.54.34.22.08.53.16.93.26.49.12.9.24 1.2.36a1.6 1.6 0 0 1 1.12 1.63c0 .35-.1.68-.32.98-.21.3-.51.54-.91.72-.4.17-.86.26-1.4.26Zm7.1 0c-.63 0-1.18-.13-1.65-.4a2.9 2.9 0 0 1-1.1-1.2 4.17 4.17 0 0 1-.4-1.91c0-.74.13-1.37.39-1.9.27-.53.63-.93 1.09-1.2.47-.28 1-.42 1.6-.42a2.85 2.85 0 0 1 2.71 1.7 3.43 3.43 0 0 1 .29 2.16h-5.4v-.94h4.42a2.6 2.6 0 0 0-.28-.97 1.92 1.92 0 0 0-1.74-1c-.47 0-.86.1-1.17.33a2 2 0 0 0-.68.9c-.14.38-.2.82-.2 1.33 0 .54.07 1.01.24 1.4a1.93 1.93 0 0 0 1.87 1.17c.38 0 .72-.08 1-.23a2 2 0 0 0 .72-.73h1.09a2.75 2.75 0 0 1-1.59 1.69 3.3 3.3 0 0 1-1.22.22Z"/>
    </g>
    <path fill="var(--border-2)" d="M155.33 46a2.67 2.67 0 1 0 5.34 0 2.67 2.67 0 0 0-5.34 0Zm0 34a2.67 2.67 0 1 0 5.34 0 2.67 2.67 0 0 0-5.34 0ZM158 46h-.5v34h1V46h-.5Z"/>
    <g filter="url(#bgex-e)">
      <rect width="67" height="24" x="325" y="22" fill="var(--bg-base)" rx="12" shape-rendering="crispEdges"/>
      <rect width="66" height="23" x="325.5" y="22.5" stroke="var(--border-2)" rx="11.5" shape-rendering="crispEdges"/>
      <path fill="var(--text-1)" d="M337.19 38.13c-.49 0-.92-.1-1.3-.27a2.42 2.42 0 0 1-.9-.76h-.07l-.13.9h-.83v-9.1H335v3.17h.06c.24-.3.53-.54.89-.71.36-.18.78-.26 1.25-.26a2.74 2.74 0 0 1 2.54 1.62c.25.53.38 1.16.38 1.9a4.4 4.4 0 0 1-.38 1.9 2.73 2.73 0 0 1-2.54 1.61Zm-.15-.95a1.87 1.87 0 0 0 1.78-1.17c.18-.38.26-.84.26-1.39 0-.82-.18-1.46-.56-1.9a1.82 1.82 0 0 0-1.48-.66 2 2 0 0 0-1.08.3c-.3.19-.54.48-.71.87-.17.38-.26.84-.26 1.39 0 .55.09 1.01.26 1.4a2 2 0 0 0 .71.86 2 2 0 0 0 1.08.3Zm7.67 3.42c-.47 0-.91-.08-1.31-.23a2.78 2.78 0 0 1-1.7-1.81h1.09c.16.35.4.62.71.8.32.2.73.3 1.21.3.6 0 1.08-.16 1.43-.46.37-.3.55-.75.55-1.34V36.7h-.07c-.23.3-.53.52-.88.68-.35.15-.76.23-1.25.23a2.71 2.71 0 0 1-2.55-1.5 3.83 3.83 0 0 1-.38-1.75c0-.68.13-1.26.38-1.76.25-.49.6-.86 1.04-1.11.44-.26.95-.4 1.51-.4a3 3 0 0 1 1.27.27c.39.17.7.4.93.71h.06l.13-.84h.83v6.63c0 .86-.27 1.54-.81 2.01-.55.49-1.28.73-2.19.73Zm-.06-3.94c.4 0 .76-.09 1.06-.27.31-.18.55-.45.72-.8.17-.34.26-.75.26-1.23s-.09-.89-.26-1.23a1.7 1.7 0 0 0-.72-.8c-.3-.18-.66-.27-1.06-.27-.42 0-.78.09-1.08.27-.3.18-.54.44-.72.8-.17.34-.26.75-.26 1.23s.09.89.26 1.23c.18.35.41.62.72.8.3.18.66.27 1.08.27Zm4.78-2.59h3.93v.95h-3.93v-.95Zm5.64-2.84h.83l.13.9h.07c.23-.32.54-.58.9-.76a3 3 0 0 1 1.3-.27 2.74 2.74 0 0 1 2.54 1.62c.26.53.38 1.16.38 1.9s-.13 1.37-.38 1.9a2.73 2.73 0 0 1-2.54 1.61c-.47 0-.89-.09-1.25-.26s-.65-.4-.89-.7h-.06v3.43h-1.03v-9.37Zm3.08 5.95a1.88 1.88 0 0 0 1.78-1.17c.18-.38.26-.84.26-1.39 0-.82-.18-1.46-.56-1.9a1.82 1.82 0 0 0-1.48-.66 2 2 0 0 0-1.08.3c-.3.19-.54.48-.71.87-.18.38-.26.84-.26 1.39 0 .55.08 1.01.26 1.4a2 2 0 0 0 .71.86c.31.2.68.3 1.08.3Zm6.62.95c-.46 0-.88-.1-1.24-.27a2 2 0 0 1-.82-.74c-.2-.32-.29-.68-.29-1.07a1.98 1.98 0 0 1 1.17-1.82c.4-.18.85-.27 1.38-.27h2.2v.93h-2.2c-.5 0-.87.1-1.13.31a.99.99 0 0 0-.4.84c0 .34.13.62.36.83.24.2.57.31 1 .31.42 0 .78-.08 1.08-.25a1.8 1.8 0 0 0 .96-1.6v-1.81c0-.45-.15-.8-.44-1.07-.3-.27-.68-.4-1.16-.4-.4 0-.73.08-.99.26-.26.17-.44.4-.54.7h-1.08c.16-.6.46-1.08.92-1.4a2.77 2.77 0 0 1 1.7-.51c.54 0 1 .1 1.4.3.39.2.69.48.9.85.21.37.32.79.32 1.27V38h-.83l-.13-.9h-.07c-.15.25-.41.49-.8.7-.37.22-.79.33-1.27.33Zm5.13-6.9h.84l.13.9h.06c.22-.36.5-.62.83-.79a2.65 2.65 0 0 1 2.41.09c.39.22.69.54.9.97.23.41.35.9.35 1.44V38h-1.03v-4.15a2 2 0 0 0-.22-.97 1.43 1.43 0 0 0-.59-.61 1.71 1.71 0 0 0-.86-.21c-.33 0-.64.08-.9.25a1.8 1.8 0 0 0-.66.65 1.8 1.8 0 0 0-.23.9V38h-1.03v-6.77Zm10.37 6.9c-.62 0-1.17-.13-1.63-.4a2.9 2.9 0 0 1-1.11-1.2 4.17 4.17 0 0 1-.4-1.91c0-.74.13-1.37.39-1.9.27-.53.63-.93 1.09-1.2.47-.28 1-.42 1.6-.42a2.85 2.85 0 0 1 2.72 1.7 3.43 3.43 0 0 1 .28 2.16h-5.4v-.94h4.43a2.6 2.6 0 0 0-.29-.97 1.92 1.92 0 0 0-1.74-1c-.47 0-.86.1-1.17.33a2 2 0 0 0-.68.9c-.14.38-.2.82-.2 1.33 0 .54.08 1.01.24 1.4a1.93 1.93 0 0 0 1.87 1.17c.38 0 .72-.08 1-.23a2 2 0 0 0 .72-.73h1.1a2.75 2.75 0 0 1-1.6 1.69 3.3 3.3 0 0 1-1.22.22Z"/>
    </g>
    <path fill="var(--border-2)" d="M355.83 46a2.67 2.67 0 1 0 5.34 0 2.67 2.67 0 0 0-5.34 0Zm0 73a2.67 2.67 0 1 0 5.34 0 2.67 2.67 0 0 0-5.34 0Zm2.67-73h-.5v73h1V46h-.5Z"/>
    <g filter="url(#bgex-f)">
      <rect width="70" height="24" x="418" y="22" fill="var(--bg-base)" rx="12" shape-rendering="crispEdges"/>
      <rect width="69" height="23" x="418.5" y="22.5" stroke="var(--border-2)" rx="11.5" shape-rendering="crispEdges"/>
      <path fill="var(--text-1)" d="M430.19 38.13c-.49 0-.92-.1-1.3-.27a2.42 2.42 0 0 1-.9-.76h-.07l-.13.9h-.83v-9.1H428v3.17h.06c.24-.3.53-.54.89-.71.36-.18.78-.26 1.25-.26a2.74 2.74 0 0 1 2.54 1.62c.25.53.38 1.16.38 1.9a4.4 4.4 0 0 1-.38 1.9 2.73 2.73 0 0 1-2.54 1.61Zm-.15-.95a1.87 1.87 0 0 0 1.78-1.17c.18-.38.26-.84.26-1.39 0-.82-.18-1.46-.56-1.9a1.82 1.82 0 0 0-1.48-.66 2 2 0 0 0-1.08.3c-.3.19-.54.48-.71.87-.17.38-.26.84-.26 1.39 0 .55.09 1.01.26 1.4a2 2 0 0 0 .71.86 2 2 0 0 0 1.08.3Zm7.67 3.42c-.47 0-.91-.08-1.31-.23a2.78 2.78 0 0 1-1.7-1.81h1.09c.16.35.4.62.71.8.32.2.73.3 1.21.3.6 0 1.08-.16 1.43-.46.37-.3.55-.75.55-1.34V36.7h-.07c-.23.3-.53.52-.88.68-.35.15-.76.23-1.25.23a2.71 2.71 0 0 1-2.55-1.5 3.83 3.83 0 0 1-.38-1.75c0-.68.13-1.26.38-1.76.25-.49.6-.86 1.04-1.11.44-.26.95-.4 1.51-.4a3 3 0 0 1 1.27.27c.39.17.7.4.93.71h.06l.13-.84h.83v6.63c0 .86-.27 1.54-.81 2.01-.55.49-1.28.73-2.19.73Zm-.06-3.94c.4 0 .76-.09 1.06-.27.31-.18.55-.45.72-.8.17-.34.26-.75.26-1.23s-.09-.89-.26-1.23a1.7 1.7 0 0 0-.72-.8c-.3-.18-.66-.27-1.06-.27-.42 0-.78.09-1.08.27-.3.18-.54.44-.72.8-.17.34-.26.75-.26 1.23s.09.89.26 1.23c.18.35.41.62.72.8.3.18.66.27 1.08.27Zm4.78-2.59h3.93v.95h-3.93v-.95Zm8.93 4.06c-.49 0-.91-.1-1.29-.27a2.43 2.43 0 0 1-.9-.76h-.07l-.13.9h-.83v-9.1h1.02v3.17h.07c.23-.3.53-.54.88-.71a2.8 2.8 0 0 1 1.25-.26 2.74 2.74 0 0 1 2.55 1.62c.25.53.38 1.16.38 1.9s-.13 1.37-.38 1.9a2.73 2.73 0 0 1-2.55 1.61Zm-.14-.95a1.88 1.88 0 0 0 1.78-1.17c.17-.38.26-.84.26-1.39 0-.82-.19-1.46-.56-1.9a1.82 1.82 0 0 0-1.48-.66c-.41 0-.77.1-1.08.3-.3.19-.54.48-.72.87-.17.38-.26.84-.26 1.39 0 .55.09 1.01.26 1.4a2 2 0 0 0 .72.86c.31.2.67.3 1.08.3Zm4.91-8.28h1.03V38h-1.03v-9.1Zm6.01 9.23c-.62 0-1.17-.13-1.63-.4a2.9 2.9 0 0 1-1.1-1.2 4.17 4.17 0 0 1-.41-1.91c0-.75.13-1.38.4-1.9a2.88 2.88 0 0 1 2.74-1.62c.62 0 1.16.14 1.63.41.48.28.84.68 1.1 1.21.27.52.4 1.15.4 1.9s-.13 1.38-.4 1.91a2.8 2.8 0 0 1-1.1 1.2 3.2 3.2 0 0 1-1.63.4Zm0-.95a1.96 1.96 0 0 0 1.84-1.17c.18-.39.27-.85.27-1.39 0-.55-.1-1.01-.27-1.4a1.96 1.96 0 0 0-1.83-1.17 1.95 1.95 0 0 0-1.85 1.17 3.3 3.3 0 0 0-.28 1.4c0 .54.1 1 .28 1.4.18.37.43.66.74.86.32.2.69.3 1.1.3Zm7.73.95c-.62 0-1.17-.13-1.64-.4a2.9 2.9 0 0 1-1.1-1.2 4.17 4.17 0 0 1-.4-1.91c0-.75.13-1.38.4-1.9a2.88 2.88 0 0 1 2.74-1.62c.44 0 .85.07 1.22.22a2.75 2.75 0 0 1 1.59 1.7h-1.08a1.97 1.97 0 0 0-1.73-.96 1.95 1.95 0 0 0-1.85 1.17c-.18.39-.27.85-.27 1.39 0 .54.1 1 .27 1.4.19.37.43.66.75.86.32.2.69.3 1.1.3a1.96 1.96 0 0 0 1.73-.97h1.08a2.73 2.73 0 0 1-1.59 1.7 3.3 3.3 0 0 1-1.22.22Zm4.53-9.23h1.02v5.51l3.15-3.18h1.3l-3.29 3.32 3.49 3.45h-1.3l-3.35-3.3V38h-1.02v-9.1Z"/>
    </g>
    <path fill="var(--border-2)" d="M450.33 46a2.67 2.67 0 1 0 5.34 0 2.67 2.67 0 0 0-5.34 0Zm0 210a2.67 2.67 0 1 0 5.34 0 2.67 2.67 0 0 0-5.34 0ZM453 46h-.5v210h1V46h-.5Z"/>
    <g filter="url(#bgex-g)">
      <rect width="64" height="24" x="514" y="22" fill="var(--bg-base)" rx="12" shape-rendering="crispEdges"/>
      <rect width="63" height="23" x="514.5" y="22.5" stroke="var(--border-2)" rx="11.5" shape-rendering="crispEdges"/>
      <path fill="var(--text-1)" d="M526.19 38.13c-.49 0-.92-.1-1.3-.27a2.42 2.42 0 0 1-.9-.76h-.07l-.13.9h-.83v-9.1H524v3.17h.06c.24-.3.53-.54.89-.71.36-.18.78-.26 1.25-.26a2.74 2.74 0 0 1 2.54 1.62c.25.53.38 1.16.38 1.9a4.4 4.4 0 0 1-.38 1.9 2.73 2.73 0 0 1-2.54 1.61Zm-.15-.95a1.87 1.87 0 0 0 1.78-1.17c.18-.38.26-.84.26-1.39 0-.82-.18-1.46-.56-1.9a1.82 1.82 0 0 0-1.48-.66 2 2 0 0 0-1.08.3c-.3.19-.54.48-.71.87-.17.38-.26.84-.26 1.39 0 .55.09 1.01.26 1.4a2 2 0 0 0 .71.86 2 2 0 0 0 1.08.3Zm7.67 3.42c-.48 0-.91-.08-1.31-.23a2.78 2.78 0 0 1-1.7-1.81h1.09c.16.35.4.62.71.8.32.2.73.3 1.21.3.6 0 1.08-.16 1.43-.46.37-.3.55-.75.55-1.34V36.7h-.07c-.23.3-.53.52-.88.68-.35.15-.76.23-1.25.23a2.71 2.71 0 0 1-2.55-1.5 3.83 3.83 0 0 1-.38-1.75c0-.68.13-1.26.38-1.76.25-.49.6-.86 1.04-1.11.44-.26.95-.4 1.51-.4a3 3 0 0 1 1.27.27c.39.17.7.4.93.71h.06l.13-.84h.83v6.63c0 .86-.27 1.54-.82 2.01-.54.49-1.27.73-2.18.73Zm-.06-3.94c.4 0 .76-.09 1.06-.27.31-.18.55-.45.72-.8.17-.34.26-.75.26-1.23s-.09-.89-.26-1.23a1.7 1.7 0 0 0-.72-.8c-.3-.18-.66-.27-1.06-.27-.42 0-.78.09-1.08.27-.3.18-.54.44-.72.8-.17.34-.26.75-.26 1.23s.09.89.26 1.23c.18.35.41.62.72.8.3.18.66.27 1.08.27Zm4.78-2.59h3.93v.95h-3.93v-.95Zm7.81 4.06c-.45 0-.86-.08-1.23-.23a2.56 2.56 0 0 1-.91-.68 2.4 2.4 0 0 1-.48-1h1.09c.1.3.28.54.56.71.28.17.6.25.97.25.52 0 .92-.09 1.18-.27.28-.2.42-.44.42-.74a.7.7 0 0 0-.2-.54 1.28 1.28 0 0 0-.55-.3 5.6 5.6 0 0 0-.87-.25 9.29 9.29 0 0 1-1.25-.36 2.07 2.07 0 0 1-.82-.58 1.77 1.77 0 0 1-.34-1.15c0-.32.1-.63.3-.92.2-.3.48-.53.85-.7a3.15 3.15 0 0 1 2.41-.07 2.16 2.16 0 0 1 1.38 1.53h-1.1c-.1-.25-.26-.44-.5-.58-.23-.13-.53-.2-.9-.2-.47 0-.81.08-1.05.26a.8.8 0 0 0-.35.68c0 .25.07.44.22.59.15.15.33.26.55.34.22.08.52.16.92.26.5.12.9.24 1.21.36.31.11.58.3.8.57.21.26.32.62.32 1.06 0 .35-.11.68-.33.98-.2.3-.5.54-.9.72-.4.17-.87.26-1.4.26Zm4.28-6.9h.83l.13.9h.06c.24-.32.54-.58.91-.76.38-.18.8-.27 1.29-.27a2.74 2.74 0 0 1 2.55 1.62c.25.53.38 1.16.38 1.9a4.4 4.4 0 0 1-.38 1.9 2.73 2.73 0 0 1-2.55 1.61c-.47 0-.88-.09-1.25-.26-.35-.17-.65-.4-.88-.7h-.07v3.43h-1.02v-9.37Zm3.08 5.95a1.89 1.89 0 0 0 1.78-1.17c.17-.38.26-.84.26-1.39 0-.82-.19-1.46-.56-1.9a1.82 1.82 0 0 0-1.48-.66c-.41 0-.77.1-1.08.3-.3.19-.54.48-.72.87-.17.38-.26.84-.26 1.39 0 .55.09 1.01.26 1.4a2 2 0 0 0 .72.86c.31.2.67.3 1.08.3Zm7.67.95c-.63 0-1.17-.13-1.64-.4a2.9 2.9 0 0 1-1.1-1.2 4.17 4.17 0 0 1-.4-1.91c0-.75.13-1.38.4-1.9a2.88 2.88 0 0 1 2.74-1.62c.61 0 1.15.14 1.62.41.48.28.85.68 1.1 1.21.27.52.41 1.15.41 1.9s-.13 1.38-.4 1.91a2.8 2.8 0 0 1-1.1 1.2 3.2 3.2 0 0 1-1.63.4Zm0-.95a1.96 1.96 0 0 0 1.83-1.17c.18-.39.27-.85.27-1.39a3.3 3.3 0 0 0-.27-1.4 1.96 1.96 0 0 0-1.83-1.17 1.95 1.95 0 0 0-1.85 1.17 3.3 3.3 0 0 0-.27 1.4c0 .54.09 1 .27 1.4.18.37.43.66.74.86.32.2.7.3 1.1.3Zm6.9.82c-.33 0-.63-.07-.89-.22a1.59 1.59 0 0 1-.6-.61 1.76 1.76 0 0 1-.23-.89v-4.1h-1.04v-.95h1.04l.14-1.82h.89v1.82h1.74v.96h-1.74v4.08c0 .23.07.41.22.56.14.14.33.2.54.2h.98V38h-1.05Z"/>
    </g>
    <path fill="var(--border-2)" d="M543.33 46a2.67 2.67 0 1 0 5.34 0 2.67 2.67 0 0 0-5.34 0Zm0 318a2.67 2.67 0 1 0 5.34 0 2.67 2.67 0 0 0-5.34 0ZM546 46h-.5v318h1V46h-.5Z"/>
  </g>
  <defs>
    <filter id="bgex-c" width="90" height="32" x="213" y="22" color-interpolation-filters="sRGB" filterUnits="userSpaceOnUse">
      <feFlood flood-opacity="0" result="BackgroundImageFix"/>
      <feColorMatrix in="SourceAlpha" result="hardAlpha" type="matrix" values="0 0 0 0 0 0 0 0 0 0 0 0 0 0 0 0 0 0 127 0"/>
      <feOffset dy="4"/>
      <feGaussianBlur stdDeviation="2"/>
      <feComposite in2="hardAlpha" operator="out"/>
      <feColorMatrix type="matrix" values="0 0 0 0 0 0 0 0 0 0 0 0 0 0 0 0 0 0 0.03 0"/>
      <feBlend in2="BackgroundImageFix" mode="normal" result="effect1_dropShadow_1044_11205"/>
      <feBlend in="SourceGraphic" in2="effect1_dropShadow_1044_11205" mode="normal" result="shape"/>
    </filter>
    <filter id="bgex-d" width="74" height="32" x="121" y="22" color-interpolation-filters="sRGB" filterUnits="userSpaceOnUse">
      <feFlood flood-opacity="0" result="BackgroundImageFix"/>
      <feColorMatrix in="SourceAlpha" result="hardAlpha" type="matrix" values="0 0 0 0 0 0 0 0 0 0 0 0 0 0 0 0 0 0 127 0"/>
      <feOffset dy="4"/>
      <feGaussianBlur stdDeviation="2"/>
      <feComposite in2="hardAlpha" operator="out"/>
      <feColorMatrix type="matrix" values="0 0 0 0 0 0 0 0 0 0 0 0 0 0 0 0 0 0 0.03 0"/>
      <feBlend in2="BackgroundImageFix" mode="normal" result="effect1_dropShadow_1044_11205"/>
      <feBlend in="SourceGraphic" in2="effect1_dropShadow_1044_11205" mode="normal" result="shape"/>
    </filter>
    <filter id="bgex-e" width="75" height="32" x="321" y="22" color-interpolation-filters="sRGB" filterUnits="userSpaceOnUse">
      <feFlood flood-opacity="0" result="BackgroundImageFix"/>
      <feColorMatrix in="SourceAlpha" result="hardAlpha" type="matrix" values="0 0 0 0 0 0 0 0 0 0 0 0 0 0 0 0 0 0 127 0"/>
      <feOffset dy="4"/>
      <feGaussianBlur stdDeviation="2"/>
      <feComposite in2="hardAlpha" operator="out"/>
      <feColorMatrix type="matrix" values="0 0 0 0 0 0 0 0 0 0 0 0 0 0 0 0 0 0 0.03 0"/>
      <feBlend in2="BackgroundImageFix" mode="normal" result="effect1_dropShadow_1044_11205"/>
      <feBlend in="SourceGraphic" in2="effect1_dropShadow_1044_11205" mode="normal" result="shape"/>
    </filter>
    <filter id="bgex-f" width="78" height="32" x="414" y="22" color-interpolation-filters="sRGB" filterUnits="userSpaceOnUse">
      <feFlood flood-opacity="0" result="BackgroundImageFix"/>
      <feColorMatrix in="SourceAlpha" result="hardAlpha" type="matrix" values="0 0 0 0 0 0 0 0 0 0 0 0 0 0 0 0 0 0 127 0"/>
      <feOffset dy="4"/>
      <feGaussianBlur stdDeviation="2"/>
      <feComposite in2="hardAlpha" operator="out"/>
      <feColorMatrix type="matrix" values="0 0 0 0 0 0 0 0 0 0 0 0 0 0 0 0 0 0 0.03 0"/>
      <feBlend in2="BackgroundImageFix" mode="normal" result="effect1_dropShadow_1044_11205"/>
      <feBlend in="SourceGraphic" in2="effect1_dropShadow_1044_11205" mode="normal" result="shape"/>
    </filter>
    <filter id="bgex-g" width="72" height="32" x="510" y="22" color-interpolation-filters="sRGB" filterUnits="userSpaceOnUse">
      <feFlood flood-opacity="0" result="BackgroundImageFix"/>
      <feColorMatrix in="SourceAlpha" result="hardAlpha" type="matrix" values="0 0 0 0 0 0 0 0 0 0 0 0 0 0 0 0 0 0 127 0"/>
      <feOffset dy="4"/>
      <feGaussianBlur stdDeviation="2"/>
      <feComposite in2="hardAlpha" operator="out"/>
      <feColorMatrix type="matrix" values="0 0 0 0 0 0 0 0 0 0 0 0 0 0 0 0 0 0 0.03 0"/>
      <feBlend in2="BackgroundImageFix" mode="normal" result="effect1_dropShadow_1044_11205"/>
      <feBlend in="SourceGraphic" in2="effect1_dropShadow_1044_11205" mode="normal" result="shape"/>
    </filter>
    <clipPath id="bgex-a">
      <rect width="715" height="431" fill="var(--bg-section)" rx="12"/>
    </clipPath>
    <clipPath id="bgex-b">
      <rect width="659" height="343" x="28" y="60" fill="var(--bg-section)" rx="8"/>
    </clipPath>
  </defs>
</svg>
